<?xml version="1.0" encoding="utf-8"?>
<!-- Generator: Adobe Illustrator 26.5.0, SVG Export Plug-In . SVG Version: 6.00 Build 0)  -->
<svg version="1.0" id="Calque_1" xmlns="http://www.w3.org/2000/svg" xmlns:xlink="http://www.w3.org/1999/xlink" x="0px" y="0px"
	 viewBox="0 0 210.4 60" enable-background="new 0 0 210.4 60" xml:space="preserve">
<g>
	<g>
		<defs>
			<path id="XMLID_00000031905614908065946470000015093047637125551284_" d="M85.1,9.4l-1.8-0.6l0,0L61,7.7l-1.8,0.6l1.3,1.4
				l0.8,0.5l1.7,18l0,0c5.7-0.5,6.2,4.9,6.1,7h8l0.5-1.9c-1.2-1.8-1.9-4-1.9-6.6c0-3.3,1-6.3,2.9-8.3c0.9-1,2-1.7,3.1-2.2l1-4.7
				l1.1-0.7L85.1,9.4z"/>
		</defs>
		<use xlink:href="#XMLID_00000031905614908065946470000015093047637125551284_"  overflow="visible" fill="#9E9E9E"/>
		<clipPath id="XMLID_00000054965531901375738560000003978849673705818279_">
			<use xlink:href="#XMLID_00000031905614908065946470000015093047637125551284_"  overflow="visible"/>
		</clipPath>
	</g>
	<polygon fill="#9E9E9E" points="61.5,5.4 83.8,3.2 84.2,4.8 61.7,7.2 61.2,7.2 59,5.4 60.3,4.5 	"/>
	<path fill="#5D6060" d="M64.4,29.8c-1.6,0-3,1.3-3,3c0,1.6,1.3,3,3,3c1.6,0,3-1.3,3-3C67.4,31.1,66,29.8,64.4,29.8z M64.4,33.6
		c-0.5,0-0.8-0.4-0.8-0.8s0.4-0.8,0.8-0.8c0.5,0,0.8,0.4,0.8,0.8S64.9,33.6,64.4,33.6z"/>
	<path fill="#6ED37A" d="M14.8,17.2c5.3,0,8.9,3.9,8.9,9.4c0,0.7-0.1,1.5-0.2,2.2l-13.8,0c0.7,2.3,2.8,3.7,5.6,3.7
		c1.8,0,3.5-0.6,4.6-1.9l2.8,2.8c-1.8,2-4.4,3-7.4,3c-5.6,0-9.9-4.2-9.9-9.6C5.4,21.4,9.5,17.2,14.8,17.2z M9.7,25.4l9.9,0
		c-0.4-2.6-2.3-4.3-4.8-4.3C12.2,21.1,10,22.8,9.7,25.4z"/>
	<path fill="#6ED37A" d="M11.7,15.8l0.8-1.7c0.9-1.8,2.8-3,4.8-3h0.1L16.4,13C15.5,14.7,13.7,15.8,11.7,15.8L11.7,15.8z"/>
	<path fill="#6ED37A" d="M59.2,26.8c0,5.3-4.3,9.6-9.6,9.6c-5.3,0-9.6-4.3-9.6-9.6c0-5.3,4.3-9.6,9.6-9.6
		C54.9,17.2,59.2,21.5,59.2,26.8z M49.6,32.1c2.9,0,5.3-2.4,5.3-5.3c0-2.9-2.4-5.3-5.3-5.3c-2.9,0-5.3,2.4-5.3,5.3
		C44.3,29.7,46.7,32.1,49.6,32.1z"/>
	<path fill="#5D6060" d="M108.7,16.9c5.3,0,8.9,3.9,8.9,9.4c0,0.7-0.1,1.5-0.2,2.2l-13.8,0c0.7,2.3,2.8,3.7,5.6,3.7
		c1.8,0,3.5-0.6,4.6-1.9l2.8,2.8c-1.8,2-4.4,3-7.4,3c-5.6,0-9.9-4.2-9.9-9.6C99.3,21.1,103.4,16.9,108.7,16.9z M103.6,25.1l9.9,0
		c-0.4-2.6-2.3-4.3-4.8-4.3C106.1,20.8,103.9,22.5,103.6,25.1z"/>
	<path fill="#5D6060" d="M107.1,15.3l0.8-1.6c0.9-1.7,2.6-2.8,4.6-2.8h0.1l-1,1.8C110.7,14.3,109,15.3,107.1,15.3L107.1,15.3z"/>
	<path fill="#5D6060" d="M118.6,26.5c0-5.3,4.3-9.6,9.6-9.6c2.7,0,5.2,1.1,7,3l-3.1,3.1c-1-1-2.4-1.7-3.9-1.7
		c-2.9,0-5.3,2.4-5.3,5.3c0,2.9,2.4,5.3,5.3,5.3c1.5,0,2.9-0.7,3.9-1.7l3.1,3.1c-1.7,1.9-4.2,3-7,3C123,36.2,118.6,31.8,118.6,26.5z
		"/>
	<path fill="#5D6060" d="M136.8,35.8l0-28l4.4,0l0,11.4c1.4-1.4,3.4-2.4,5.6-2.4c4.3,0,7.3,3,7.3,7.7l0,11.1h-4.4V25.6
		c0-3.1-1.6-4.6-4-4.6c-2.5,0-4.5,1.9-4.5,4.8l0,10H136.8z"/>
	<path fill="#5D6060" d="M165.2,16.9c5.3,0,8.9,3.9,8.9,9.4c0,0.7-0.1,1.5-0.2,2.2l-13.8,0c0.7,2.3,2.8,3.7,5.6,3.7
		c1.8,0,3.5-0.6,4.6-1.9l2.8,2.8c-1.8,2-4.4,3-7.4,3c-5.6,0-9.9-4.2-9.9-9.6C155.8,21.1,159.9,16.9,165.2,16.9z M160.1,25.1l9.9,0
		c-0.4-2.6-2.3-4.3-4.8-4.3C162.6,20.8,160.4,22.5,160.1,25.1z"/>
	<path fill="#5D6060" d="M175.1,17.3h3.4v-5l4.4,0l0,5l4.7,0v4.4l-4.7,0v6.6c0,2.9,0.4,3.7,2.2,3.7c0.8,0,1.6-0.1,2.5-0.3v4.1
		c-0.9,0.2-2.1,0.4-3.1,0.4c-4.2,0-6-1.9-6-6.6l0-7.9l-3.4,0V17.3z"/>
	<path fill="#5D6060" d="M191.8,30c1.4,1.3,3.5,2.2,5.6,2.2c1.9,0,3.3-0.8,3.3-1.8c0-1.6-2.3-2-3.7-2.4c-3-0.9-7.1-1.7-7.1-5.7
		c0-3.1,3.1-5.4,7.3-5.4c2.9,0,5.6,1.1,7.4,2.7l-2.4,3c-1.3-1.1-3.2-1.7-5-1.7c-1.9,0-2.9,0.7-2.9,1.5c0,1,1.9,1.4,3.9,1.9
		c3.7,0.9,7,2.1,7,6.1c0,3.3-3.3,5.8-7.8,5.8c-3.1,0-5.9-1.1-8.1-3.1L191.8,30z"/>
	<path fill="#6ED37A" d="M38.1,30.3c-1,1.1-2.4,1.7-3.9,1.7c-2.9,0-5.3-2.4-5.3-5.3c0-2.9,2.4-5.3,5.3-5.3c1.5,0,2.9,0.6,3.8,1.7
		l2.5-3.6c-1.7-1.5-3.9-2.4-6.3-2.4c-5.3,0-9.6,4.3-9.6,9.6c0,5.3,4.3,9.6,9.6,9.6c2.2,0,4.5-1,6.1-2.3L38.1,30.3z"/>
	<path fill="#FFFFFF" d="M71.9,23.8c-2.3-2.1-5.2-3.2-8.3-3l0.1,1.5c2.7-0.1,5.2,0.8,7.1,2.6c2.1,2,3.3,4.9,3.1,8h1.5
		C75.6,29.4,74.3,26.1,71.9,23.8z"/>
	<path fill="#FFFFFF" d="M64,25.1l0.1,1.5c1.8-0.1,3.2,0.4,4.3,1.6c1,1,1.7,2.9,2,4.8H72C71.4,27.6,68.3,24.8,64,25.1z"/>
	<path fill="#5D6060" d="M87.5,16.1c2.5,0,4.7,1.3,6,2.8v-11l4.6,0l0,28.6l-4.6,0v-2.9c-1.3,1.6-3.6,2.9-6,2.9
		c-5.6,0-9.7-4.6-9.7-10.2C77.7,20.6,81.8,16.1,87.5,16.1z M81.8,26.4c0,3.2,2.6,5.8,5.8,5.8s5.8-2.6,5.8-5.8c0-3.2-2.6-5.8-5.8-5.8
		C84.4,20.5,81.8,23.2,81.8,26.4z"/>
	<g>
		<path fill="#9E9E9E" d="M6.1,52l0,3.9h2.2v0.8h-3l0-4.7H6.1z"/>
		<path fill="#9E9E9E" d="M10.5,56.7V52h3v0.8h-2.3v1.1h2v0.8h-2V56h2.3v0.8H10.5z"/>
		<path fill="#9E9E9E" d="M21,52c0.7,0,1.3,0.3,1.8,0.8l-0.5,0.5c-0.3-0.3-0.7-0.5-1.2-0.5c-0.9,0-1.6,0.7-1.6,1.6S20.1,56,21,56
			c0.5,0,0.9-0.2,1.2-0.5l0.5,0.5c-0.4,0.5-1.1,0.8-1.8,0.8c-1.3,0-2.4-1.1-2.4-2.4C18.6,53,19.6,52,21,52z"/>
		<path fill="#9E9E9E" d="M24.5,54.4c0-1.3,1.1-2.4,2.4-2.4c1.3,0,2.4,1.1,2.4,2.4c0,1.3-1.1,2.4-2.4,2.4
			C25.6,56.8,24.5,55.7,24.5,54.4z M26.9,56c0.9,0,1.6-0.7,1.6-1.6c0-0.9-0.7-1.6-1.6-1.6c-0.9,0-1.6,0.7-1.6,1.6S26,56,26.9,56z"/>
		<path fill="#9E9E9E" d="M32.2,52V56h2.2v0.8h-3V52H32.2z"/>
		<path fill="#9E9E9E" d="M37.3,52V56h2.2v0.8h-3V52H37.3z"/>
		<path fill="#9E9E9E" d="M41.6,56.7V52h3v0.8h-2.3v1.1h2v0.8l-2,0V56h2.3v0.8H41.6z"/>
		<path fill="#9E9E9E" d="M49,52c0.7,0,1.3,0.3,1.8,0.8l-0.5,0.5c-0.3-0.3-0.7-0.5-1.2-0.5c-0.9,0-1.6,0.7-1.6,1.6S48,56,49,56
			c0.5,0,0.9-0.2,1.2-0.5l0.5,0.5c-0.4,0.5-1.1,0.8-1.8,0.8c-1.3,0-2.4-1.1-2.4-2.4C46.5,53,47.6,52,49,52z"/>
		<path fill="#9E9E9E" d="M52.4,52.8V52h3.7v0.8h-1.5v3.9h-0.8v-3.9H52.4z"/>
		<path fill="#9E9E9E" d="M58.2,56.7V52h3v0.8H59v1.1h2v0.8h-2V56h2.3v0.8H58.2z"/>
		<path fill="#9E9E9E" d="M63.4,54.9V52h0.8v2.9c0,0.7,0.4,1.1,1.1,1.1c0.7,0,1.1-0.4,1.1-1.1V52l0.8,0v2.9c0,1.1-0.7,1.9-1.8,1.9
			C64.1,56.8,63.4,56,63.4,54.9z"/>
		<path fill="#9E9E9E" d="M69.5,52h2.1c0.9,0,1.5,0.7,1.5,1.6c0,0.6-0.3,1.1-0.7,1.3l0.8,1.8h-0.8l-0.7-1.5c0,0-0.1,0-0.1,0h-1.2
			v1.5h-0.8V52z M70.2,54.5h1.2c0.5,0,0.8-0.3,0.8-0.8c0-0.5-0.3-0.8-0.8-0.8h-1.2V54.5z"/>
		<path fill="#9E9E9E" d="M77.9,56.7l1.8-4.7h0.8l1.8,4.7h-0.8l-0.4-1h-2l-0.4,1H77.9z M79.2,50.6h0.7l0.5,1h-0.7L79.2,50.6z
			 M80.8,55l-0.7-1.9L79.4,55H80.8z"/>
		<path fill="#9E9E9E" d="M88.2,52V56h2.2v0.8h-3V52H88.2z"/>
		<path fill="#9E9E9E" d="M91.8,52h0.8l-0.3,1.8h-0.6L91.8,52z"/>
		<path fill="#9E9E9E" d="M94.6,56.7V52h3v0.8h-2.3v1.1h2v0.8h-2V56h2.3v0.8H94.6z M95.7,51.6l0.5-1h0.7l-0.5,1H95.7z"/>
		<path fill="#9E9E9E" d="M102,52c0.7,0,1.3,0.3,1.8,0.8l-0.5,0.5c-0.3-0.3-0.7-0.5-1.2-0.5c-0.9,0-1.6,0.7-1.6,1.6S101,56,102,56
			c0.5,0,0.9-0.2,1.2-0.5l0.5,0.5c-0.4,0.5-1.1,0.8-1.8,0.8c-1.3,0-2.4-1.1-2.4-2.4C99.5,53,100.6,52,102,52z"/>
		<path fill="#9E9E9E" d="M105.5,54.4c0-1.3,1.1-2.4,2.4-2.4c1.3,0,2.4,1.1,2.4,2.4c0,1.3-1.1,2.4-2.4,2.4
			C106.5,56.8,105.5,55.7,105.5,54.4z M107.9,56c0.9,0,1.6-0.7,1.6-1.6c0-0.9-0.7-1.6-1.6-1.6c-0.9,0-1.6,0.7-1.6,1.6
			C106.2,55.3,107,56,107.9,56z"/>
		<path fill="#9E9E9E" d="M112.4,54.9V52h0.8v2.9c0,0.7,0.4,1.1,1.1,1.1c0.7,0,1.1-0.4,1.1-1.1V52h0.8v2.9c0,1.1-0.7,1.9-1.8,1.9
			C113.2,56.8,112.4,56,112.4,54.9z"/>
		<path fill="#9E9E9E" d="M118.1,52.8V52h3.7v0.8h-1.5v3.9h-0.8v-3.9H118.1z"/>
		<path fill="#9E9E9E" d="M123.9,56.7V52h3v0.8h-2.3v1.1h2v0.8h-2V56h2.3v0.8H123.9z"/>
		<path fill="#9E9E9E" d="M132.2,52h1.8c1.3,0,2.3,1,2.3,2.4s-0.9,2.4-2.3,2.4h-1.8V52z M133,56h1c0.9,0,1.5-0.6,1.5-1.6
			c0-0.9-0.6-1.6-1.5-1.6h-1V56z"/>
		<path fill="#9E9E9E" d="M138.4,56.7V52l3,0v0.8h-2.3v1.1h2v0.8h-2V56h2.3v0.8H138.4z"/>
		<path fill="#9E9E9E" d="M146.3,52h0.8l1.3,3.5l1.3-3.5h0.8l-1.7,4.7H148L146.3,52z"/>
		<path fill="#9E9E9E" d="M152.1,54.4c0-1.3,1.1-2.4,2.4-2.4c1.3,0,2.4,1.1,2.4,2.4c0,1.3-1.1,2.4-2.4,2.4
			C153.1,56.8,152.1,55.7,152.1,54.4z M154.5,56c0.9,0,1.6-0.7,1.6-1.6c0-0.9-0.7-1.6-1.6-1.6c-0.9,0-1.6,0.7-1.6,1.6
			C152.8,55.3,153.6,56,154.5,56z"/>
		<path fill="#9E9E9E" d="M159.1,55.5c0.4,0.4,0.9,0.5,1.4,0.5c0.6,0,1-0.3,1-0.6c0-0.4-0.4-0.5-1.2-0.8c-0.8-0.2-1.5-0.5-1.5-1.4
			c0-0.8,0.7-1.3,1.7-1.3c0.6,0,1.3,0.3,1.7,0.8l-0.5,0.5c-0.3-0.3-0.7-0.5-1.2-0.5c-0.5,0-0.9,0.2-0.9,0.5c0,0.3,0.3,0.4,1.1,0.7
			c0.9,0.2,1.6,0.6,1.6,1.5c0,0.9-0.8,1.4-1.8,1.4c-0.8,0-1.4-0.3-1.9-0.8L159.1,55.5z"/>
		<path fill="#9E9E9E" d="M167.6,52h1.8c1.3,0,2.3,1,2.3,2.4s-0.9,2.4-2.3,2.4h-1.8V52z M168.4,56h1c0.9,0,1.5-0.6,1.5-1.6
			c0-0.9-0.6-1.6-1.5-1.6h-1V56z"/>
		<path fill="#9E9E9E" d="M173.8,56.7V52h3v0.8h-2.3v1.1h2v0.8h-2V56h2.3v0.8H173.8z M174.9,51.6l0.5-1h0.7l-0.5,1H174.9z"/>
		<path fill="#9E9E9E" d="M181.1,52c0.7,0,1.3,0.3,1.8,0.8l-0.5,0.5c-0.3-0.3-0.7-0.5-1.2-0.5c-0.9,0-1.6,0.7-1.6,1.6
			c0,0.9,0.7,1.6,1.6,1.6c0.5,0,0.9-0.2,1.2-0.5l0.5,0.5c-0.4,0.5-1.1,0.8-1.8,0.8c-1.3,0-2.4-1.1-2.4-2.4
			C178.7,53,179.8,52,181.1,52z"/>
		<path fill="#9E9E9E" d="M184.9,56.7l0-4.7h0.8v1.9h2.2V52h0.8v4.7l-0.8,0v-2.1h-2.2v2.1H184.9z"/>
		<path fill="#9E9E9E" d="M191,56.7V52h3v0.8h-2.3v1.1h2v0.8l-2,0V56h2.3v0.8H191z"/>
		<path fill="#9E9E9E" d="M195.8,52.8V52h3.7v0.8h-1.5v3.9h-0.8v-3.9H195.8z"/>
		<path fill="#9E9E9E" d="M201.7,55.5c0.4,0.4,0.9,0.5,1.4,0.5c0.6,0,1-0.3,1-0.6c0-0.4-0.4-0.5-1.2-0.8c-0.8-0.2-1.5-0.5-1.5-1.4
			c0-0.8,0.7-1.3,1.7-1.3c0.6,0,1.3,0.3,1.7,0.8l-0.5,0.5c-0.3-0.3-0.7-0.5-1.2-0.5c-0.5,0-0.9,0.2-0.9,0.5c0,0.3,0.3,0.4,1.1,0.7
			c0.9,0.2,1.6,0.6,1.6,1.5s-0.8,1.4-1.8,1.4c-0.8,0-1.4-0.3-1.9-0.8L201.7,55.5z"/>
	</g>
</g>
<path fill="#FFFFFF" d="M63.3,17.2l0.1,1.6c7.1-0.4,10.6,3.1,12.3,7.1c0-0.9,0.2-1.8,0.3-2.6C73.5,19,69.1,16.9,63.3,17.2z"/>
</svg>
